<svg xmlns="http://www.w3.org/2000/svg" xmlns:xlink="http://www.w3.org/1999/xlink" 
width="200" zoomAndPan="magnify" viewBox="0 0 375 374.999991" 
height="200" preserveAspectRatio="xMidYMid meet" version="1.0"><defs><clipPath id="26065ad8ea"><path d="M 49 1 L 347.667969 1 L 347.667969 374 L 49 374 Z M 49 1 " clip-rule="nonzero"/></clipPath></defs><g clip-path="url(#26065ad8ea)"><path fill="#ffffff" d="M 160.605469 114.734375 L 151.867188 92.878906 L 137.242188 107.507812 C 133.421875 111.328125 128.128906 113.300781 122.742188 112.910156 C 117.359375 112.539062 112.402344 109.835938 109.160156 105.511719 L 53.257812 30.980469 C 49.03125 25.332031 48.339844 17.785156 51.507812 11.46875 C 54.65625 5.152344 61.105469 1.164062 68.167969 1.164062 L 329.035156 1.164062 C 336.097656 1.164062 342.546875 5.152344 345.695312 11.46875 C 348.863281 17.785156 348.171875 25.332031 343.941406 30.980469 L 288.042969 105.511719 C 284.800781 109.835938 279.84375 112.539062 274.457031 112.910156 C 269.074219 113.300781 263.78125 111.328125 259.960938 107.507812 L 245.335938 92.878906 L 236.59375 114.734375 L 272.78125 295.648438 C 273.097656 297.34375 273.210938 299.078125 273.078125 300.8125 C 272.726562 305.191406 270.789062 309.363281 267.675781 312.476562 C 249.042969 331.109375 230.410156 349.742188 211.773438 368.375 C 208.253906 371.917969 203.371094 373.890625 198.378906 373.835938 C 193.53125 373.78125 188.855469 371.804688 185.425781 368.375 C 166.792969 349.742188 148.160156 331.109375 129.527344 312.476562 C 126.414062 309.363281 124.476562 305.191406 124.121094 300.8125 C 123.992188 299.078125 124.105469 297.34375 124.421875 295.648438 Z M 201.957031 131.601562 L 195.246094 131.601562 L 162.9375 293.171875 L 198.601562 328.855469 L 234.265625 293.171875 Z M 216.65625 64.222656 L 198.601562 46.144531 L 180.546875 64.222656 L 192.582031 94.332031 L 204.621094 94.332031 Z M 291.769531 38.433594 L 243.582031 38.433594 L 271.121094 65.972656 Z M 153.621094 38.433594 L 105.433594 38.433594 L 126.078125 65.972656 Z M 153.621094 38.433594 " fill-opacity="1" fill-rule="evenodd"/></g></svg>