<svg width="96" height="96" viewBox="0 0 48 48" fill="none" xmlns="http://www.w3.org/2000/svg">
<mask id="mask0_37743_182767" style="mask-type:luminance" maskUnits="userSpaceOnUse" x="4" y="4" width="40" height="40">
<path d="M44 4H4V44H44V4Z" fill="white"/>
</mask>
<g mask="url(#mask0_37743_182767)">
<path fill-rule="evenodd" clip-rule="evenodd" d="M5.63998 31.6001L5.05398 33.7431C4.83598 34.4291 4.52998 35.4361 4.36498 36.3331C4.06102 37.1355 3.94454 37.9969 4.02447 38.8513C4.1044 39.7056 4.3786 40.5304 4.82613 41.2626C5.27365 41.9948 5.88265 42.615 6.60658 43.0757C7.3305 43.5365 8.15019 43.8256 9.00298 43.9211C9.79498 44.0351 10.691 44.0301 11.695 43.8821L16.308 43.2451C16.8755 43.1667 17.4075 42.9233 17.838 42.5452C18.2684 42.167 18.5782 41.6708 18.729 41.1181L21.904 29.4561L5.63998 31.6001Z" fill="url(#paint0_linear_37743_182767)"/>
<path d="M10.1399 32.1521C5.27693 32.9051 4.27893 36.5741 4.27893 36.5741L8.93593 19.4641L33.2679 16.1731L29.9499 28.2251C29.8643 28.5448 29.6874 28.8327 29.441 29.0535C29.1945 29.2744 28.8891 29.4188 28.5619 29.4691L28.4259 29.4911L10.0029 32.1751L10.1399 32.1521Z" fill="url(#paint1_linear_37743_182767)"/>
<path d="M10.1399 32.1521C5.27693 32.9051 4.27893 36.5741 4.27893 36.5741L8.93593 19.4641L33.2679 16.1731L29.9499 28.2251C29.8643 28.5448 29.6874 28.8327 29.441 29.0535C29.1945 29.2744 28.8891 29.4188 28.5619 29.4691L28.4259 29.4911L10.0029 32.1751L10.1399 32.1521Z" fill="url(#paint2_linear_37743_182767)" fill-opacity="0.8"/>
<path d="M12.8989 21.235L39.8369 17.256C40.1481 17.2128 40.4396 17.0787 40.6749 16.8706C40.9102 16.6625 41.0789 16.3896 41.1599 16.086L43.9399 6.02304C44.0106 5.76946 44.0174 5.50234 43.9597 5.2455C43.902 4.98866 43.7817 4.75009 43.6094 4.55107C43.4371 4.35205 43.2182 4.19876 42.9723 4.10488C42.7264 4.011 42.461 3.97945 42.1999 4.01304L16.4969 7.81304C15.1377 8.03387 13.8706 8.64064 12.8464 9.56112C11.8222 10.4816 11.0841 11.677 10.7199 13.005L7.01294 26.439C7.75694 23.721 8.21494 22.083 12.8989 21.235Z" fill="url(#paint3_linear_37743_182767)"/>
<path d="M12.8989 21.235L39.8369 17.256C40.1481 17.2128 40.4396 17.0787 40.6749 16.8706C40.9102 16.6625 41.0789 16.3896 41.1599 16.086L43.9399 6.02304C44.0106 5.76946 44.0174 5.50234 43.9597 5.2455C43.902 4.98866 43.7817 4.75009 43.6094 4.55107C43.4371 4.35205 43.2182 4.19876 42.9723 4.10488C42.7264 4.011 42.461 3.97945 42.1999 4.01304L16.4969 7.81304C15.1377 8.03387 13.8706 8.64064 12.8464 9.56112C11.8222 10.4816 11.0841 11.677 10.7199 13.005L7.01294 26.439C7.75694 23.721 8.21494 22.083 12.8989 21.235Z" fill="url(#paint4_linear_37743_182767)"/>
<path d="M12.8989 21.235L39.8369 17.256C40.1481 17.2128 40.4396 17.0787 40.6749 16.8706C40.9102 16.6625 41.0789 16.3896 41.1599 16.086L43.9399 6.02304C44.0106 5.76946 44.0174 5.50234 43.9597 5.2455C43.902 4.98866 43.7817 4.75009 43.6094 4.55107C43.4371 4.35205 43.2182 4.19876 42.9723 4.10488C42.7264 4.011 42.461 3.97945 42.1999 4.01304L16.4969 7.81304C15.1377 8.03387 13.8706 8.64064 12.8464 9.56112C11.8222 10.4816 11.0841 11.677 10.7199 13.005L7.01294 26.439C7.75694 23.721 8.21494 22.083 12.8989 21.235Z" fill="url(#paint5_linear_37743_182767)" fill-opacity="0.4"/>
<path d="M12.8989 21.236C8.99793 21.942 8.02893 23.198 7.38493 25.168L4.27893 36.577C4.27893 36.577 5.27093 32.944 10.0749 32.167L28.4269 29.494L28.5629 29.472C28.89 29.4215 29.1953 29.277 29.4417 29.0562C29.6881 28.8353 29.8651 28.5476 29.9509 28.228L32.6809 18.313L12.8989 21.236Z" fill="url(#paint6_linear_37743_182767)"/>
<path d="M12.8989 21.236C8.99793 21.942 8.02893 23.198 7.38493 25.168L4.27893 36.577C4.27893 36.577 5.27093 32.944 10.0749 32.167L28.4269 29.494L28.5629 29.472C28.89 29.4215 29.1953 29.277 29.4417 29.0562C29.6881 28.8353 29.8651 28.5476 29.9509 28.228L32.6809 18.313L12.8989 21.236Z" fill="url(#paint7_linear_37743_182767)" fill-opacity="0.2"/>
<path fill-rule="evenodd" clip-rule="evenodd" d="M10.075 32.1681C6.01497 32.8241 4.68197 35.5131 4.36497 36.3321C4.06063 37.1347 3.94387 37.9962 4.02361 38.8509C4.10335 39.7055 4.37749 40.5306 4.82505 41.263C5.27261 41.9954 5.88175 42.6158 6.60588 43.0767C7.33 43.5376 8.14994 43.8267 9.00297 43.9221C9.79497 44.0361 10.691 44.0301 11.695 43.8821L16.308 43.2461C16.8755 43.1677 17.4075 42.9244 17.8379 42.5462C18.2684 42.1681 18.5782 41.6718 18.729 41.1191L21.623 30.4861L10.076 32.1691L10.075 32.1681Z" fill="url(#paint8_linear_37743_182767)"/>
</g>
<defs>
<linearGradient id="paint0_linear_37743_182767" x1="12.953" y1="44.0011" x2="12.953" y2="29.4571" gradientUnits="userSpaceOnUse">
<stop offset="0.056" stop-color="#2AAC94"/>
<stop offset="0.155" stop-color="#239C87"/>
<stop offset="0.372" stop-color="#177E71"/>
<stop offset="0.588" stop-color="#0E6961"/>
<stop offset="0.799" stop-color="#095D57"/>
<stop offset="1" stop-color="#085954"/>
</linearGradient>
<linearGradient id="paint1_linear_37743_182767" x1="31.3309" y1="33.4481" x2="17.2859" y2="18.1731" gradientUnits="userSpaceOnUse">
<stop offset="0.042" stop-color="#ABE88E"/>
<stop offset="0.549" stop-color="#2AAA92"/>
<stop offset="0.906" stop-color="#117865"/>
</linearGradient>
<linearGradient id="paint2_linear_37743_182767" x1="-3.18207" y1="32.7051" x2="10.1829" y2="28.1481" gradientUnits="userSpaceOnUse">
<stop stop-color="#6AD6F9"/>
<stop offset="1" stop-color="#6AD6F9" stop-opacity="0"/>
</linearGradient>
<linearGradient id="paint3_linear_37743_182767" x1="7.01294" y1="15.219" x2="42.5889" y2="15.219" gradientUnits="userSpaceOnUse">
<stop offset="0.043" stop-color="#25FFD4"/>
<stop offset="0.874" stop-color="#55DDB9"/>
</linearGradient>
<linearGradient id="paint4_linear_37743_182767" x1="7.01294" y1="10.247" x2="39.0599" y2="25.128" gradientUnits="userSpaceOnUse">
<stop stop-color="#6AD6F9"/>
<stop offset="0.23" stop-color="#60E9D0"/>
<stop offset="0.651" stop-color="#6DE9BB"/>
<stop offset="0.994" stop-color="#ABE88E"/>
</linearGradient>
<linearGradient id="paint5_linear_37743_182767" x1="9.97794" y1="13.031" x2="27.4039" y2="16.886" gradientUnits="userSpaceOnUse">
<stop stop-color="white" stop-opacity="0"/>
<stop offset="0.459" stop-color="white"/>
<stop offset="1" stop-color="white" stop-opacity="0"/>
</linearGradient>
<linearGradient id="paint6_linear_37743_182767" x1="15.7559" y1="27.96" x2="16.1679" y2="15.74" gradientUnits="userSpaceOnUse">
<stop offset="0.205" stop-color="#063D3B" stop-opacity="0"/>
<stop offset="0.586" stop-color="#063D3B" stop-opacity="0.237"/>
<stop offset="0.872" stop-color="#063D3B" stop-opacity="0.75"/>
</linearGradient>
<linearGradient id="paint7_linear_37743_182767" x1="2.80993" y1="26.744" x2="17.7009" y2="29.545" gradientUnits="userSpaceOnUse">
<stop stop-color="white" stop-opacity="0"/>
<stop offset="0.459" stop-color="white"/>
<stop offset="1" stop-color="white" stop-opacity="0"/>
</linearGradient>
<linearGradient id="paint8_linear_37743_182767" x1="13.567" y1="39.9711" x2="10.662" y2="25.7651" gradientUnits="userSpaceOnUse">
<stop offset="0.064" stop-color="#063D3B" stop-opacity="0"/>
<stop offset="0.17" stop-color="#063D3B" stop-opacity="0.135"/>
<stop offset="0.562" stop-color="#063D3B" stop-opacity="0.599"/>
<stop offset="0.85" stop-color="#063D3B" stop-opacity="0.9"/>
<stop offset="1" stop-color="#063D3B"/>
</linearGradient>
</defs>
</svg>
