<svg xmlns="http://www.w3.org/2000/svg" xmlns:xlink="http://www.w3.org/1999/xlink" 
width="200"
 zoomAndPan="magnify" 
 viewBox="0 0 375 374.999991" 
 height="200"
 preserveAspectRatio="xMidYMid meet" version="1.0"><defs><clipPath id="6b9275779f"><path d="M 0 69.84375 L 375 69.84375 L 375 231 L 0 231 Z M 0 69.84375 " clip-rule="nonzero"/></clipPath><clipPath id="19032de9f0"><path d="M 81 194 L 294 194 L 294 305.34375 L 81 305.34375 Z M 81 194 " clip-rule="nonzero"/></clipPath></defs><path fill="#ffffff" d="M 342.371094 200.386719 C 343.128906 200.566406 343.859375 200.816406 344.566406 201.140625 C 345.273438 201.464844 345.945312 201.851562 346.574219 202.308594 C 347.207031 202.761719 347.789062 203.273438 348.320312 203.84375 C 348.847656 204.414062 349.320312 205.027344 349.726562 205.691406 C 350.136719 206.351562 350.476562 207.046875 350.75 207.777344 C 351.019531 208.507812 351.21875 209.253906 351.34375 210.023438 C 351.46875 210.792969 351.515625 211.5625 351.488281 212.34375 C 351.460938 213.121094 351.359375 213.886719 351.179688 214.644531 C 351 215.402344 350.75 216.132812 350.425781 216.84375 C 350.105469 217.550781 349.714844 218.21875 349.257812 218.851562 C 348.804688 219.480469 348.292969 220.0625 347.722656 220.59375 C 347.152344 221.125 346.539062 221.59375 345.875 222.003906 C 345.214844 222.410156 344.519531 222.75 343.789062 223.023438 C 343.058594 223.296875 342.3125 223.492188 341.542969 223.617188 C 340.777344 223.742188 340.003906 223.792969 339.226562 223.765625 C 338.449219 223.738281 337.679688 223.632812 336.921875 223.453125 C 336.164062 223.277344 335.433594 223.023438 334.726562 222.703125 C 334.015625 222.378906 333.347656 221.988281 332.714844 221.535156 C 332.085938 221.078125 331.503906 220.566406 330.972656 219.996094 C 330.445312 219.429688 329.972656 218.8125 329.566406 218.152344 C 329.15625 217.488281 328.816406 216.792969 328.542969 216.0625 C 328.269531 215.335938 328.074219 214.585938 327.949219 213.820312 C 327.824219 213.050781 327.773438 212.277344 327.804688 211.5 C 327.832031 210.722656 327.933594 209.953125 328.113281 209.199219 C 328.292969 208.441406 328.542969 207.707031 328.867188 207 C 329.1875 206.292969 329.578125 205.621094 330.03125 204.992188 C 330.488281 204.359375 331 203.777344 331.570312 203.25 C 332.140625 202.71875 332.753906 202.25 333.417969 201.839844 C 334.078125 201.429688 334.773438 201.089844 335.503906 200.816406 C 336.230469 200.546875 336.980469 200.347656 337.75 200.222656 C 338.515625 200.097656 339.289062 200.050781 340.066406 200.078125 C 340.84375 200.105469 341.613281 200.207031 342.371094 200.386719 Z M 342.371094 200.386719 " fill-opacity="1" fill-rule="nonzero"/><g clip-path="url(#6b9275779f)"><path fill="#ffffff" d="M 374.941406 150.367188 L 187.441406 69.914062 L -0.0585938 150.367188 L 187.441406 230.808594 L 374.941406 150.367188 " fill-opacity="1" fill-rule="nonzero"/></g><g clip-path="url(#19032de9f0)"><path fill="#ffffff" d="M 187.441406 240.015625 L 81.679688 194.675781 L 81.679688 273.382812 C 81.679688 282.945312 93.046875 291.078125 114.542969 296.894531 C 134.066406 302.183594 159.949219 305.085938 187.441406 305.085938 C 214.929688 305.085938 240.804688 302.171875 260.339844 296.894531 C 281.835938 291.078125 293.199219 282.945312 293.199219 273.382812 L 293.199219 194.652344 Z M 187.441406 240.015625 " fill-opacity="1" fill-rule="nonzero"/></g><path fill="#ffffff" d="M 334.195312 234.453125 L 332.058594 258.390625 C 332.871094 259.03125 335.433594 260.199219 339.625 260.199219 C 343.804688 260.199219 346.375 259.03125 347.191406 258.390625 L 345.054688 234.453125 C 343.308594 234.867188 341.5 235.105469 339.625 235.105469 C 337.757812 235.105469 335.941406 234.867188 334.195312 234.453125 Z M 334.195312 234.453125 " fill-opacity="1" fill-rule="nonzero"/><path fill="#ffffff" d="M 347.191406 258.390625 C 346.375 259.03125 343.816406 260.199219 339.625 260.199219 C 335.445312 260.199219 332.871094 259.03125 332.058594 258.390625 L 334.195312 234.453125 C 331.207031 233.734375 328.445312 232.449219 326.039062 230.699219 L 323.558594 258.476562 L 323.546875 258.851562 C 323.546875 264.53125 330.3125 268.660156 339.625 268.660156 C 348.9375 268.660156 355.699219 264.542969 355.699219 258.851562 L 355.699219 258.664062 L 353.210938 230.699219 C 350.800781 232.449219 348.039062 233.734375 345.054688 234.453125 Z M 347.191406 258.390625 " fill-opacity="1" fill-rule="nonzero"/><path fill="#ffffff" d="M 343.851562 198.9375 L 343.851562 160.90625 L 335.386719 160.90625 L 335.386719 198.9375 C 336.757812 198.691406 338.171875 198.546875 339.613281 198.546875 C 341.066406 198.546875 342.480469 198.691406 343.851562 198.9375 Z M 343.851562 198.9375 " fill-opacity="1" fill-rule="nonzero"/><path fill="#ffffff" d="M 335.398438 196.363281 C 330.289062 197.757812 326.179688 201.617188 324.445312 206.574219 C 324.445312 206.585938 324.433594 206.597656 324.433594 206.609375 C 324.160156 207.402344 323.949219 208.214844 323.796875 209.054688 C 323.785156 209.113281 323.773438 209.171875 323.761719 209.230469 C 323.703125 209.621094 323.640625 210.007812 323.605469 210.410156 C 323.59375 210.480469 323.59375 210.550781 323.59375 210.636719 C 323.558594 211.035156 323.546875 211.449219 323.546875 211.863281 C 323.546875 211.863281 323.546875 211.875 323.546875 211.875 C 323.546875 211.875 323.546875 211.886719 323.546875 211.886719 C 323.546875 212.300781 323.570312 212.699219 323.59375 213.101562 C 323.59375 213.171875 323.605469 213.253906 323.605469 213.328125 C 323.640625 213.726562 323.691406 214.117188 323.761719 214.507812 C 323.773438 214.554688 323.785156 214.613281 323.785156 214.660156 C 323.925781 215.5 324.136719 216.3125 324.410156 217.101562 C 324.410156 217.101562 324.410156 217.117188 324.410156 217.117188 C 324.976562 218.757812 325.800781 220.277344 326.839844 221.625 L 326.839844 221.636719 C 328.835938 224.246094 331.621094 226.238281 334.832031 227.230469 C 335.1875 227.335938 335.539062 227.433594 335.90625 227.527344 C 335.953125 227.539062 336.011719 227.550781 336.058594 227.5625 C 336.769531 227.726562 337.5 227.832031 338.242188 227.902344 C 338.328125 227.914062 338.410156 227.914062 338.492188 227.925781 C 338.855469 227.949219 339.222656 227.972656 339.601562 227.972656 C 339.980469 227.972656 340.34375 227.960938 340.710938 227.925781 C 340.792969 227.925781 340.875 227.914062 340.957031 227.902344 C 341.703125 227.84375 342.433594 227.726562 343.140625 227.574219 C 343.199219 227.5625 343.25 227.550781 343.308594 227.539062 C 343.671875 227.457031 344.027344 227.359375 344.382812 227.242188 C 347.59375 226.238281 350.378906 224.257812 352.371094 221.648438 L 352.371094 221.636719 C 353.410156 220.277344 354.238281 218.769531 354.804688 217.128906 C 355.074219 216.335938 355.289062 215.511719 355.441406 214.671875 C 355.453125 214.625 355.453125 214.578125 355.464844 214.53125 C 355.523438 214.140625 355.582031 213.738281 355.617188 213.339844 C 355.628906 213.265625 355.628906 213.195312 355.628906 213.125 C 355.664062 212.722656 355.675781 212.3125 355.675781 211.898438 C 355.675781 211.472656 355.652344 211.058594 355.628906 210.648438 C 355.628906 210.574219 355.617188 210.503906 355.617188 210.433594 C 355.582031 210.03125 355.535156 209.632812 355.464844 209.242188 C 355.453125 209.183594 355.441406 209.136719 355.441406 209.078125 C 355.289062 208.238281 355.074219 207.414062 354.804688 206.621094 C 354.804688 206.609375 354.792969 206.597656 354.792969 206.585938 C 353.058594 201.628906 348.949219 197.769531 343.839844 196.375 C 342.492188 196.011719 341.078125 195.808594 339.613281 195.808594 C 338.160156 195.796875 336.746094 195.988281 335.398438 196.363281 Z M 347.238281 211.875 C 347.238281 216.078125 343.816406 219.5 339.613281 219.5 C 335.410156 219.5 331.988281 216.078125 331.988281 211.875 C 331.988281 207.671875 335.410156 204.25 339.613281 204.25 C 343.828125 204.25 347.238281 207.671875 347.238281 211.875 Z M 347.238281 211.875 " fill-opacity="1" fill-rule="nonzero"/>
</svg>