<svg xmlns="http://www.w3.org/2000/svg" xmlns:xlink="http://www.w3.org/1999/xlink" width="200" zoomAndPan="magnify" viewBox="0 0 375 374.999991" height="200" preserveAspectRatio="xMidYMid meet" version="1.0"><defs><clipPath id="3b1b41497a"><path d="M 161 0 L 373.921875 0 L 373.921875 213 L 161 213 Z M 161 0 " clip-rule="nonzero"/></clipPath><clipPath id="9dd3720610"><path d="M 1.171875 101 L 174 101 L 174 289 L 1.171875 289 Z M 1.171875 101 " clip-rule="nonzero"/></clipPath></defs><g clip-path="url(#3b1b41497a)"><path fill="#ffffff" d="M 373.332031 143.019531 C 370.25 147.082031 367.167969 151.148438 364.082031 155.214844 C 363.902344 155.445312 363.714844 155.667969 363.359375 156.109375 C 360.40625 154.066406 357.453125 152.027344 354.34375 149.875 C 346.671875 160.621094 339.171875 171.128906 331.574219 181.773438 C 333.152344 183.019531 334.597656 184.164062 336.3125 185.527344 C 330.007812 194.394531 323.746094 203.214844 317.148438 212.496094 C 309.484375 207.074219 301.90625 201.699219 294.105469 196.160156 C 300.632812 187 306.988281 178.101562 313.421875 169.078125 C 315.910156 170.824219 318.15625 172.402344 320.835938 174.289062 C 328.441406 163.636719 335.976562 153.085938 343.726562 142.21875 C 338.988281 138.875 334.441406 135.605469 329.785156 132.496094 C 329.429688 132.253906 328.027344 132.960938 327.585938 133.5625 C 319.042969 145.429688 310.570312 157.347656 302.078125 169.257812 C 300.882812 170.945312 299.511719 172.546875 298.515625 174.347656 C 297.394531 176.363281 296.101562 176.792969 293.925781 176.0625 C 282.875 172.351562 271.785156 168.757812 260.710938 165.125 C 246.628906 160.507812 232.539062 155.929688 218.488281 151.21875 C 217.082031 150.742188 215.585938 149.804688 214.671875 148.652344 C 201.988281 132.597656 189.394531 116.460938 176.78125 100.347656 C 172.027344 94.277344 167.324219 88.179688 162.449219 82.210938 C 161.183594 80.671875 161.210938 79.75 162.347656 78.164062 C 172.335938 64.28125 182.230469 50.332031 192.152344 36.398438 C 192.425781 36.011719 192.632812 35.578125 193.039062 34.890625 C 183.03125 27.734375 173.09375 20.640625 162.839844 13.308594 C 165.914062 8.917969 168.859375 4.636719 171.941406 0.46875 C 172.199219 0.109375 173.621094 0.144531 174.144531 0.511719 C 188.328125 10.5625 202.46875 20.691406 216.625 30.785156 C 231.265625 41.230469 245.933594 51.640625 260.582031 62.070312 C 276.355469 73.308594 292.125 84.5625 307.902344 95.800781 C 322.636719 106.289062 337.378906 116.761719 352.113281 127.25 C 359.199219 132.289062 366.261719 137.359375 373.332031 142.425781 C 373.332031 142.621094 373.332031 142.820312 373.332031 143.019531 " fill-opacity="1" fill-rule="nonzero"/></g><g clip-path="url(#9dd3720610)"><path fill="#ffffff" d="M 1.445312 101.433594 C 54.703125 101.441406 107.957031 101.46875 161.210938 101.398438 C 163.785156 101.390625 165.402344 102.070312 166.714844 104.300781 C 168.890625 108.003906 171.320312 111.570312 173.894531 115.574219 C 172.472656 115.652344 171.535156 115.746094 170.597656 115.746094 C 120.105469 115.753906 69.632812 115.753906 19.144531 115.730469 C 17.128906 115.730469 15.648438 115.582031 15.648438 118.535156 C 15.742188 169.613281 15.714844 220.6875 15.714844 271.761719 C 15.714844 272.253906 15.769531 272.746094 15.820312 273.597656 C 57.128906 273.597656 98.429688 273.597656 140.4375 273.597656 C 139.570312 274.527344 139.269531 275 138.847656 275.285156 C 132.980469 279.308594 127.125 283.355469 121.191406 287.265625 C 120.269531 287.867188 118.960938 288.109375 117.832031 288.109375 C 79.527344 288.152344 41.222656 288.152344 2.910156 288.144531 C 2.429688 288.144531 1.9375 288.023438 1.445312 287.960938 C 1.445312 225.785156 1.445312 163.609375 1.445312 101.433594 " fill-opacity="1" fill-rule="nonzero"/></g><path fill="#ffffff" d="M 289.308594 287.902344 C 284.761719 288.359375 280.679688 288.988281 277.5625 284.449219 C 275.046875 280.789062 271.664062 277.730469 268.167969 273.847656 C 270.929688 273.847656 272.851562 273.847656 275.082031 273.847656 C 275.082031 242.292969 275.082031 210.992188 275.082031 179.171875 C 279.800781 180.824219 284.160156 182.183594 288.34375 183.957031 C 289.09375 184.277344 289.402344 186.335938 289.402344 187.585938 C 289.464844 215.175781 289.445312 242.777344 289.4375 270.367188 C 289.4375 275.214844 289.457031 280.054688 289.4375 284.90625 C 289.429688 285.871094 289.351562 286.832031 289.308594 287.902344 " fill-opacity="1" fill-rule="nonzero"/><path fill="#ffffff" d="M 206.578125 341.914062 C 207.902344 341.15625 209.039062 340.414062 210.261719 339.855469 C 210.804688 339.605469 211.589844 339.554688 212.15625 339.734375 C 215.230469 340.691406 217.789062 340.054688 220.046875 337.71875 C 220.597656 337.152344 221.65625 336.765625 222.457031 336.796875 C 225.617188 336.953125 227.832031 335.644531 229.414062 332.964844 C 229.75 332.398438 230.492188 331.96875 231.136719 331.71875 C 232.246094 331.296875 233.4375 331.0625 234.8125 330.691406 C 237.21875 335.714844 239.671875 340.835938 242.125 345.96875 C 244.304688 350.527344 246.558594 355.054688 248.585938 359.679688 C 249.050781 360.738281 249.160156 362.632812 248.53125 363.289062 C 247.886719 363.96875 246.035156 363.976562 244.914062 363.632812 C 241.394531 362.554688 237.957031 361.203125 234.503906 359.914062 C 232.429688 359.136719 231.128906 359.75 230.414062 361.859375 C 229.199219 365.511719 228.003906 369.167969 226.582031 372.742188 C 226.195312 373.707031 225.023438 375.027344 224.246094 375 C 223.273438 374.964844 221.929688 373.921875 221.457031 372.96875 C 216.417969 362.660156 211.519531 352.289062 206.578125 341.914062 " fill-opacity="1" fill-rule="nonzero"/><path fill="#ffffff" d="M 200.429688 339.785156 C 202.203125 340.5625 203.71875 341.214844 205.472656 341.972656 C 205.3125 342.421875 205.113281 343.078125 204.828125 343.679688 C 200.203125 353.382812 195.605469 363.097656 190.886719 372.761719 C 190.394531 373.761719 189.015625 375.101562 188.242188 374.992188 C 187.242188 374.855469 186.054688 373.5625 185.605469 372.484375 C 184.195312 369.082031 183.109375 365.554688 181.871094 362.074219 C 180.984375 359.578125 180 359.113281 177.496094 360.007812 C 173.878906 361.296875 170.285156 362.710938 166.628906 363.855469 C 165.730469 364.140625 164.199219 363.941406 163.648438 363.339844 C 163.085938 362.71875 162.957031 361.144531 163.335938 360.316406 C 167.53125 351.292969 171.855469 342.335938 176.152344 333.363281 C 176.210938 333.234375 176.394531 333.164062 176.410156 333.148438 C 177.753906 333.363281 179.019531 333.464844 180.234375 333.792969 C 180.828125 333.957031 181.457031 334.421875 181.808594 334.9375 C 183.636719 337.632812 186.148438 338.582031 189.308594 338.125 C 189.859375 338.046875 190.6875 337.988281 190.980469 338.296875 C 193.882812 341.433594 197.128906 341.777344 200.429688 339.785156 " fill-opacity="1" fill-rule="nonzero"/><path fill="#ffffff" d="M 203.925781 320.453125 C 189.085938 320.429688 177.355469 308.636719 177.382812 293.765625 C 177.410156 279.160156 189.328125 267.269531 203.949219 267.257812 C 218.617188 267.242188 230.570312 279.28125 230.527344 294.023438 C 230.492188 308.664062 218.597656 320.480469 203.925781 320.453125 " fill-opacity="1" fill-rule="nonzero"/><path fill="#ffffff" d="M 203.769531 327.851562 C 184.945312 327.617188 170.039062 312.503906 170.105469 293.730469 C 170.175781 274.941406 185.28125 259.886719 204.042969 259.929688 C 222.878906 259.972656 237.949219 275.214844 237.84375 294.121094 C 237.742188 312.824219 222.328125 328.074219 203.769531 327.851562 Z M 247.25 294.808594 C 248.84375 292.964844 248.738281 291.191406 247.085938 289.453125 C 245.921875 288.230469 245.542969 286.816406 246.34375 285.265625 C 247.515625 283.011719 246.808594 281.453125 244.984375 279.804688 C 244.054688 278.960938 243.417969 277.222656 243.503906 275.941406 C 243.660156 273.71875 243.21875 272.109375 241.101562 271.273438 C 239.207031 270.53125 238.328125 269.214844 238.34375 267.214844 C 238.355469 265.105469 237.269531 263.902344 235.21875 263.625 C 233.203125 263.351562 232.023438 262.257812 231.59375 260.308594 C 231.136719 258.25 229.84375 257.289062 227.777344 257.460938 C 225.652344 257.640625 224.300781 256.753906 223.371094 254.867188 C 222.472656 253.050781 220.964844 252.386719 218.960938 253.023438 C 217.082031 253.628906 215.523438 253.25 214.285156 251.585938 C 212.984375 249.828125 211.320312 249.546875 209.445312 250.734375 C 207.824219 251.757812 206.292969 251.691406 204.785156 250.457031 C 203.011719 249.011719 201.238281 249.132812 199.601562 250.699219 C 198.273438 251.964844 196.828125 252.222656 195.199219 251.40625 C 193.023438 250.304688 191.359375 250.90625 190.035156 252.851562 C 189.015625 254.332031 187.648438 254.9375 185.855469 254.417969 C 183.703125 253.800781 182.195312 254.710938 181.414062 256.640625 C 180.65625 258.519531 179.476562 259.5 177.425781 259.457031 C 175.210938 259.40625 173.957031 260.652344 173.664062 262.738281 C 173.386719 264.683594 172.363281 265.777344 170.519531 266.191406 C 168.253906 266.699219 167.289062 268.164062 167.480469 270.394531 C 167.644531 272.347656 166.816406 273.605469 165.066406 274.390625 C 163.128906 275.257812 162.492188 276.878906 163.113281 278.765625 C 163.792969 280.847656 163.226562 282.3125 161.613281 283.628906 C 160.125 284.851562 159.730469 286.472656 160.726562 288.144531 C 161.820312 289.96875 161.804688 291.542969 160.445312 293.222656 C 159.152344 294.816406 159.222656 296.511719 160.640625 298.019531 C 162.027344 299.46875 162.371094 300.992188 161.453125 302.835938 C 160.46875 304.78125 160.960938 306.46875 162.75 307.65625 C 164.371094 308.722656 164.90625 310.078125 164.492188 311.972656 C 164.027344 314.140625 164.777344 315.734375 166.988281 316.519531 C 168.804688 317.164062 169.597656 318.542969 169.589844 320.4375 C 169.589844 322.625 170.691406 323.882812 172.871094 324.148438 C 174.671875 324.371094 175.832031 325.355469 176.230469 327.109375 C 176.753906 329.445312 178.167969 330.574219 180.542969 330.355469 C 182.386719 330.195312 183.636719 330.960938 184.382812 332.605469 C 185.3125 334.609375 186.949219 335.324219 188.941406 334.679688 C 190.9375 334.035156 192.339844 334.558594 193.589844 336.109375 C 194.949219 337.78125 196.636719 338.152344 198.5 336.980469 C 200.152344 335.929688 201.652344 336.050781 203.148438 337.253906 C 204.921875 338.675781 206.679688 338.589844 208.332031 337.015625 C 209.726562 335.6875 211.183594 335.515625 212.949219 336.367188 C 214.828125 337.28125 216.386719 336.78125 217.832031 335.121094 C 218.511719 334.335938 219.503906 333.828125 220.242188 333.449219 C 220.570312 333.292969 221.148438 333.0625 221.507812 333.191406 L 221.492188 333.171875 C 224.445312 333.636719 225.816406 332.757812 226.847656 330.605469 C 227.347656 329.574219 228.949219 328.625 230.15625 328.460938 C 232.472656 328.144531 233.988281 327.257812 234.304688 324.90625 C 234.574219 322.949219 235.640625 321.988281 237.507812 321.539062 C 239.566406 321.046875 240.644531 319.644531 240.421875 317.472656 C 240.214844 315.527344 240.996094 314.289062 242.71875 313.433594 C 244.699219 312.445312 245.484375 310.867188 244.742188 308.648438 C 244.167969 306.949219 244.570312 305.476562 246.050781 304.375 C 247.972656 302.945312 248.472656 301.265625 247.007812 299.199219 C 245.933594 297.683594 246.035156 296.203125 247.25 294.808594 " fill-opacity="1" fill-rule="nonzero"/><path fill="#ffffff" d="M 227.769531 241.5625 L 74.65625 241.5625 L 74.65625 229.722656 L 227.769531 229.722656 L 227.769531 241.5625 " fill-opacity="1" fill-rule="nonzero"/><path fill="#ffffff" d="M 227.769531 218.421875 L 74.65625 218.421875 L 74.65625 206.574219 L 227.769531 206.574219 L 227.769531 218.421875 " fill-opacity="1" fill-rule="nonzero"/><path fill="#ffffff" d="M 227.769531 194.765625 L 74.65625 194.765625 L 74.65625 182.925781 L 227.769531 182.925781 L 227.769531 194.765625 " fill-opacity="1" fill-rule="nonzero"/><path fill="#ffffff" d="M 164.734375 169.386719 L 74.65625 169.386719 L 74.65625 157.539062 L 164.734375 157.539062 L 164.734375 169.386719 " fill-opacity="1" fill-rule="nonzero"/></svg>